<?xml version="1.0" standalone="no"?>
<!DOCTYPE svg PUBLIC "-//W3C//DTD SVG 20010904//EN"
 "http://www.w3.org/TR/2001/REC-SVG-20010904/DTD/svg10.dtd">
<svg version="1.0" xmlns="http://www.w3.org/2000/svg"
 width="700.000000pt" height="357.000000pt" viewBox="0 0 700.000000 357.000000"
 preserveAspectRatio="xMidYMid meet">

<g transform="translate(0.000000,357.000000) scale(0.100000,-0.100000)"
fill="#000000" stroke="none">
<path d="M2090 2365 l-735 -735 730 -730 c401 -401 734 -730 740 -730 6 0 150
140 320 310 l310 310 315 -315 315 -315 735 735 735 735 -735 734 -735 734
-315 -309 -315 -309 -310 310 c-170 170 -312 310 -315 310 -3 0 -336 -331
-740 -735z m950 100 l205 -205 -315 -315 -315 -315 218 -217 217 -218 107 107
108 108 -108 108 c-59 59 -107 112 -107 117 0 6 232 242 515 525 l515 515 522
-523 523 -522 -520 -520 -520 -520 -207 207 -208 208 312 312 312 312 -20 23
c-10 13 -107 112 -214 221 l-194 197 -108 -107 -108 -108 105 -105 c58 -58
105 -110 105 -115 0 -6 -233 -243 -518 -528 l-517 -517 -520 520 -520 520 520
520 c286 286 522 520 525 520 3 0 97 -92 210 -205z"/>
</g>
</svg>
