<svg width="512" height="512" viewBox="0 0 512 512" fill="none" xmlns="http://www.w3.org/2000/svg">
<path fill-rule="evenodd" clip-rule="evenodd" d="M79.12 136.8H432.88C439.52 136.8 444.72 142.48 447.52 148.4C450.16 154.08 454.8 158.64 460.4 161.28C466.32 164.08 472 169.28 472 175.92V336.08C472 342.72 466.32 347.84 460.4 350.72C454.8 353.36 450.24 357.92 447.52 363.6C444.72 369.52 439.52 375.2 432.88 375.2H79.12C72.48 375.2 67.28 369.52 64.48 363.6C61.84 357.92 57.2 353.36 51.6 350.72C45.68 347.84 40 342.72 40 336.08V175.92C40 169.28 45.68 164.08 51.6 161.28C57.246 158.595 61.7946 154.046 64.48 148.4C67.28 142.48 72.48 136.8 79.12 136.8Z" fill="#F5E680"/>
<path fill-rule="evenodd" clip-rule="evenodd" d="M364.56 233.68C370.8 233.68 375.6 238.48 375.6 244.72V265.76C375.6 272 370.8 276.8 364.56 276.8C358.32 276.8 353.52 272 353.52 265.76V244.72C353.52 238.48 358.32 233.68 364.56 233.68ZM294.4 233.68H306.8C310.88 233.68 313.92 236.72 313.92 240.88C313.92 245.04 310.88 248 306.8 248H294.4V233.68ZM138.8 233.68C143.2 233.68 146.56 237.04 146.56 241.44V248H131.04V241.44C131.04 237.04 134.4 233.68 138.8 233.68ZM99.44 221.44C95.04 221.44 91.44 225.04 91.44 229.44V269.36C91.44 274.4 87.6 278.32 82.4 278.32C77.2 278.32 73.36 274.4 73.36 269.36V262C73.36 257.6 69.76 254 65.36 254C60.96 254 57.36 257.6 57.36 262V269.36C57.36 283.04 68.64 294.32 82.4 294.32C96.16 294.32 107.44 283.04 107.44 269.36V229.44C107.44 225.04 103.84 221.44 99.44 221.44ZM427.04 217.68H407.28C402.88 217.68 399.28 221.28 399.28 225.68C399.28 230.08 402.88 233.68 407.28 233.68H419.04V286.32C419.04 290.72 422.64 294.32 427.04 294.32C431.44 294.32 435.04 290.72 435.04 286.32V233.68H446.88C451.28 233.68 454.88 230.08 454.88 225.68C454.88 221.28 451.28 217.68 446.88 217.68H427.04ZM364.64 217.68C349.84 217.68 337.6 229.92 337.6 244.72V265.76C337.6 280.56 349.76 292.8 364.64 292.8C379.52 292.8 391.68 280.56 391.68 265.76V244.72C391.68 229.84 379.52 217.68 364.64 217.68ZM286.48 217.68C282.08 217.68 278.48 221.28 278.48 225.68V286.32C278.48 290.72 282.08 294.32 286.48 294.32C290.88 294.32 294.48 290.72 294.48 286.32V264H306.88C319.6 264 330 253.52 330 240.88C330 228.24 319.52 217.68 306.88 217.68H286.48ZM234.32 217.68C229.92 217.68 226.32 221.28 226.32 225.68V286.32C226.32 290.72 229.92 294.32 234.32 294.32C238.72 294.32 242.32 290.72 242.32 286.32V274.32L257.44 288.4C260.64 291.36 265.76 291.2 268.72 288C270.08 286.48 270.88 284.56 270.88 282.56C270.88 280.32 269.92 278.16 268.32 276.64L246 256L268.32 235.36C269.92 233.84 270.88 231.68 270.88 229.44C270.88 227.44 270.08 225.52 268.72 224C267.28 222.48 265.28 221.6 263.2 221.52C261.04 221.52 259.04 222.16 257.44 223.6L242.32 237.68V225.68C242.32 221.28 238.72 217.68 234.32 217.68ZM197.28 217.68C182.4 217.68 170.24 229.92 170.24 244.72V265.76C170.24 280.56 182.4 292.8 197.28 292.8C204.72 292.8 211.52 289.76 216.4 284.88C219.52 281.76 219.52 276.64 216.4 273.52C213.28 270.48 208.16 270.48 205.12 273.52C203.12 275.52 200.4 276.8 197.28 276.8C191.04 276.8 186.24 272 186.24 265.76V244.72C186.24 238.48 191.04 233.68 197.28 233.68C200.4 233.68 203.12 234.88 205.12 236.88C208.24 240 213.36 240 216.4 236.88C217.142 236.14 217.73 235.261 218.131 234.293C218.533 233.325 218.74 232.288 218.74 231.24C218.74 230.192 218.533 229.155 218.131 228.187C217.73 227.219 217.142 226.34 216.4 225.6C211.329 220.529 204.451 217.68 197.28 217.68ZM138.88 217.68C125.84 217.68 115.12 228.4 115.12 241.44V286.32C115.12 290.72 118.72 294.32 123.12 294.32C127.52 294.32 131.12 290.72 131.12 286.32V264H146.64V286.32C146.64 290.72 150.24 294.32 154.64 294.32C159.04 294.32 162.64 290.72 162.64 286.32V241.44C162.64 228.4 151.92 217.68 138.88 217.68ZM213.44 173.76C212.324 174.877 211.564 176.301 211.259 177.851C210.953 179.4 211.115 181.005 211.724 182.463C212.332 183.92 213.361 185.164 214.677 186.036C215.994 186.908 217.541 187.369 219.12 187.36C220.699 187.369 222.246 186.908 223.563 186.036C224.879 185.164 225.908 183.92 226.516 182.463C227.125 181.005 227.287 179.4 226.981 177.851C226.676 176.301 225.916 174.877 224.8 173.76C223.28 172.24 221.28 171.36 219.12 171.36C216.96 171.36 214.96 172.24 213.44 173.76ZM250.32 173.76C249.204 174.877 248.444 176.301 248.139 177.851C247.833 179.4 247.995 181.005 248.604 182.463C249.212 183.92 250.241 185.164 251.557 186.036C252.874 186.908 254.421 187.369 256 187.36C257.579 187.369 259.126 186.908 260.443 186.036C261.759 185.164 262.787 183.92 263.396 182.463C264.005 181.005 264.167 179.4 263.861 177.851C263.556 176.301 262.796 174.877 261.68 173.76C260.16 172.24 258.16 171.36 256 171.36C253.84 171.36 251.84 172.24 250.32 173.76ZM287.2 173.76C286.084 174.877 285.324 176.301 285.019 177.851C284.713 179.4 284.875 181.005 285.484 182.463C286.092 183.92 287.121 185.164 288.437 186.036C289.754 186.908 291.301 187.369 292.88 187.36C294.459 187.369 296.006 186.908 297.323 186.036C298.639 185.164 299.667 183.92 300.276 182.463C300.885 181.005 301.047 179.4 300.741 177.851C300.436 176.301 299.676 174.877 298.56 173.76C297.04 172.24 295.04 171.36 292.88 171.36C290.72 171.36 288.72 172.24 287.2 173.76Z" fill="#E6A361"/>
<path fill-rule="evenodd" clip-rule="evenodd" d="M183.68 171.36L142.64 171.52C138.24 171.52 134.64 175.12 134.64 179.52C134.64 183.92 138.24 187.52 142.64 187.52L183.68 187.36C188.08 187.36 191.68 183.76 191.68 179.36C191.68 174.96 188.08 171.36 183.68 171.36ZM369.36 171.36L328.32 171.52C323.92 171.52 320.32 175.12 320.32 179.52C320.32 183.92 323.92 187.52 328.32 187.52L369.36 187.36C373.76 187.36 377.36 183.76 377.36 179.36C377.36 174.96 373.76 171.36 369.36 171.36Z" fill="#F9F3C7"/>
<path fill-rule="evenodd" clip-rule="evenodd" d="M213.44 326.96C212.698 327.7 212.11 328.579 211.709 329.547C211.307 330.515 211.1 331.552 211.1 332.6C211.1 333.648 211.307 334.685 211.709 335.653C212.11 336.621 212.698 337.5 213.44 338.24C214.96 339.76 216.96 340.64 219.12 340.64C221.28 340.64 223.28 339.76 224.8 338.24C225.916 337.123 226.676 335.699 226.981 334.149C227.287 332.6 227.125 330.994 226.516 329.537C225.908 328.08 224.879 326.836 223.563 325.964C222.246 325.092 220.699 324.631 219.12 324.64C216.96 324.64 214.96 325.44 213.44 326.96ZM250.32 326.96C249.578 327.7 248.99 328.579 248.589 329.547C248.187 330.515 247.98 331.552 247.98 332.6C247.98 333.648 248.187 334.685 248.589 335.653C248.99 336.621 249.578 337.5 250.32 338.24C251.84 339.76 253.84 340.64 256 340.64C258.16 340.64 260.16 339.76 261.68 338.24C262.796 337.123 263.556 335.699 263.861 334.149C264.167 332.6 264.005 330.994 263.396 329.537C262.788 328.08 261.759 326.836 260.443 325.964C259.126 325.092 257.579 324.631 256 324.64C253.84 324.64 251.84 325.44 250.32 326.96ZM287.2 326.96C286.458 327.7 285.87 328.579 285.469 329.547C285.067 330.515 284.86 331.552 284.86 332.6C284.86 333.648 285.067 334.685 285.469 335.653C285.87 336.621 286.458 337.5 287.2 338.24C288.72 339.76 290.72 340.64 292.88 340.64C295.04 340.64 297.04 339.76 298.56 338.24C299.676 337.123 300.436 335.699 300.741 334.149C301.047 332.6 300.885 330.994 300.276 329.537C299.668 328.08 298.639 326.836 297.323 325.964C296.006 325.092 294.459 324.631 292.88 324.64C290.72 324.64 288.72 325.44 287.2 326.96Z" fill="#E6A361"/>
<path fill-rule="evenodd" clip-rule="evenodd" d="M183.68 324.64H142.64C138.24 324.72 134.64 328.32 134.64 332.72C134.64 337.12 138.24 340.72 142.64 340.72H183.76C188.16 340.56 191.76 336.96 191.76 332.56C191.739 330.452 190.887 328.438 189.389 326.955C187.891 325.472 185.868 324.64 183.76 324.64H183.68ZM369.36 324.64H328.32C323.92 324.72 320.32 328.32 320.32 332.72C320.32 337.12 323.92 340.72 328.32 340.72H369.44C373.84 340.56 377.44 336.96 377.44 332.56C377.419 330.452 376.567 328.438 375.069 326.955C373.571 325.472 371.548 324.64 369.44 324.64H369.36ZM256 63.2C251.6 63.2 248 66.8 248 71.2V90.72C248 95.12 251.6 98.72 256 98.72C260.4 98.72 264 95.12 264 90.72V71.2C264 66.8 260.4 63.2 256 63.2ZM178.88 82.8C176.8 82.88 174.8 83.92 173.44 85.52C170.56 88.8 170.96 93.92 174.24 96.8L191.28 111.52C194.64 114.4 199.68 114.08 202.56 110.72C205.44 107.44 205.04 102.32 201.76 99.44L184.72 84.72C183.929 84.0187 183.003 83.4865 181.998 83.1564C180.994 82.8262 179.933 82.7049 178.88 82.8ZM333.2 82.8C332.148 82.7174 331.09 82.8445 330.087 83.1741C329.085 83.5037 328.158 84.0292 327.36 84.72L310.24 99.44C306.96 102.32 306.56 107.44 309.44 110.72C312.32 114.08 317.36 114.4 320.72 111.52L337.84 96.8C341.12 93.92 341.52 88.8 338.64 85.52C337.968 84.7187 337.138 84.0638 336.202 83.596C335.266 83.1281 334.245 82.8572 333.2 82.8ZM256 413.28C251.6 413.28 248 416.88 248 421.28V440.8C248 445.2 251.6 448.8 256 448.8C260.4 448.8 264 445.2 264 440.8V421.28C264 416.88 260.4 413.28 256 413.28ZM197.04 398.48C194.96 398.4 192.88 399.04 191.2 400.48L174.16 415.2C170.88 418.08 170.48 423.2 173.36 426.48C176.24 429.84 181.28 430.16 184.64 427.28L201.68 412.56C205.04 409.68 205.36 404.56 202.48 401.28C201.12 399.68 199.12 398.64 197.04 398.48ZM314.96 398.48C313.386 398.613 311.885 399.205 310.645 400.184C309.405 401.163 308.48 402.486 307.985 403.986C307.491 405.487 307.449 407.1 307.864 408.624C308.279 410.149 309.133 411.517 310.32 412.56L327.44 427.28C330.72 430.16 335.84 429.84 338.72 426.48C341.6 423.2 341.2 418.08 337.92 415.2L320.8 400.48C319.2 399.04 317.12 398.4 314.96 398.48Z" fill="#F9F3C7"/>
</svg>
